<?xml version="1.0" encoding="UTF-8" standalone="no"?>
<!DOCTYPE svg PUBLIC "-//W3C//DTD SVG 1.1//EN"
 "http://www.w3.org/Graphics/SVG/1.1/DTD/svg11.dtd">
<!-- Generated by graphviz version 2.38.0 (20140413.2041)
 -->
<!-- Title: G Pages: 1 -->
<svg width="112pt" height="191pt"
 viewBox="0.00 0.00 112.00 191.00" xmlns="http://www.w3.org/2000/svg" xmlns:xlink="http://www.w3.org/1999/xlink">
<g id="graph0" class="graph" transform="scale(1 1) rotate(0) translate(4 187)">
<title>G</title>
<polygon fill="white" stroke="none" points="-4,4 -4,-187 108,-187 108,4 -4,4"/>
<!-- 2833094596704 -->
<g id="node1" class="node"><title>2833094596704</title>
<polygon fill="none" stroke="black" points="3,-73.5 3,-109.5 101,-109.5 101,-73.5 3,-73.5"/>
<text text-anchor="middle" x="52" y="-87.8" font-family="Times New Roman,serif" font-size="14.00">lstm_5: LSTM</text>
</g>
<!-- 2833094595920 -->
<g id="node2" class="node"><title>2833094595920</title>
<polygon fill="none" stroke="black" points="0,-0.5 0,-36.5 104,-36.5 104,-0.5 0,-0.5"/>
<text text-anchor="middle" x="52" y="-14.8" font-family="Times New Roman,serif" font-size="14.00">dense_5: Dense</text>
</g>
<!-- 2833094596704&#45;&gt;2833094595920 -->
<g id="edge2" class="edge"><title>2833094596704&#45;&gt;2833094595920</title>
<path fill="none" stroke="black" d="M52,-73.3129C52,-65.2895 52,-55.5475 52,-46.5691"/>
<polygon fill="black" stroke="black" points="55.5001,-46.5288 52,-36.5288 48.5001,-46.5289 55.5001,-46.5288"/>
</g>
<!-- 2833094843248 -->
<g id="node3" class="node"><title>2833094843248</title>
<polygon fill="none" stroke="black" points="0,-146.5 0,-182.5 104,-182.5 104,-146.5 0,-146.5"/>
<text text-anchor="middle" x="52" y="-160.8" font-family="Times New Roman,serif" font-size="14.00">2833094843248</text>
</g>
<!-- 2833094843248&#45;&gt;2833094596704 -->
<g id="edge1" class="edge"><title>2833094843248&#45;&gt;2833094596704</title>
<path fill="none" stroke="black" d="M52,-146.313C52,-138.289 52,-128.547 52,-119.569"/>
<polygon fill="black" stroke="black" points="55.5001,-119.529 52,-109.529 48.5001,-119.529 55.5001,-119.529"/>
</g>
</g>
</svg>
